<mxfile host="app.diagrams.net" modified="2024-01-20T03:14:42.441Z" agent="Mozilla/5.0 (Windows NT 10.0; Win64; x64) AppleWebKit/537.36 (KHTML, like Gecko) Chrome/120.0.0.0 Safari/537.36" etag="zeS6S2wEs-651KmMQJiC" version="22.1.21" type="device">
  <diagram name="Page-1" id="sxPgfSwSeQ9VCJ6rutcJ">
    <mxGraphModel dx="1050" dy="522" grid="1" gridSize="10" guides="1" tooltips="1" connect="1" arrows="1" fold="1" page="1" pageScale="1" pageWidth="850" pageHeight="1100" math="0" shadow="0">
      <root>
        <mxCell id="0" />
        <mxCell id="1" parent="0" />
        <mxCell id="ejDtjYFl1J_Eo5fHuyqw-12" style="edgeStyle=orthogonalEdgeStyle;rounded=0;orthogonalLoop=1;jettySize=auto;html=1;" parent="1" target="ejDtjYFl1J_Eo5fHuyqw-5" edge="1">
          <mxGeometry relative="1" as="geometry">
            <mxPoint x="550" y="795" as="sourcePoint" />
          </mxGeometry>
        </mxCell>
        <mxCell id="ejDtjYFl1J_Eo5fHuyqw-38" style="edgeStyle=orthogonalEdgeStyle;rounded=0;orthogonalLoop=1;jettySize=auto;html=1;" parent="1" source="ejDtjYFl1J_Eo5fHuyqw-4" target="ejDtjYFl1J_Eo5fHuyqw-37" edge="1">
          <mxGeometry relative="1" as="geometry" />
        </mxCell>
        <mxCell id="ejDtjYFl1J_Eo5fHuyqw-4" value="Actor" style="shape=umlActor;verticalLabelPosition=bottom;verticalAlign=top;html=1;outlineConnect=0;" parent="1" vertex="1">
          <mxGeometry x="150" y="940" width="30" height="60" as="geometry" />
        </mxCell>
        <mxCell id="ejDtjYFl1J_Eo5fHuyqw-14" style="edgeStyle=orthogonalEdgeStyle;rounded=0;orthogonalLoop=1;jettySize=auto;html=1;" parent="1" source="ejDtjYFl1J_Eo5fHuyqw-5" edge="1">
          <mxGeometry relative="1" as="geometry">
            <mxPoint x="210" y="970" as="targetPoint" />
            <Array as="points">
              <mxPoint x="470" y="970" />
              <mxPoint x="470" y="971" />
            </Array>
          </mxGeometry>
        </mxCell>
        <mxCell id="ejDtjYFl1J_Eo5fHuyqw-5" value="Actor" style="shape=umlActor;verticalLabelPosition=bottom;verticalAlign=top;html=1;outlineConnect=0;" parent="1" vertex="1">
          <mxGeometry x="730" y="940" width="30" height="60" as="geometry" />
        </mxCell>
        <mxCell id="ejDtjYFl1J_Eo5fHuyqw-6" value="&lt;font style=&quot;font-size: 14px;&quot;&gt;Developer&lt;/font&gt;" style="text;html=1;align=center;verticalAlign=middle;resizable=0;points=[];autosize=1;strokeColor=none;fillColor=none;" parent="1" vertex="1">
          <mxGeometry x="70" y="900" width="90" height="30" as="geometry" />
        </mxCell>
        <mxCell id="ejDtjYFl1J_Eo5fHuyqw-7" value="&lt;font style=&quot;font-size: 14px;&quot;&gt;QA engineer&amp;nbsp;&lt;/font&gt;" style="text;html=1;align=center;verticalAlign=middle;resizable=0;points=[];autosize=1;strokeColor=none;fillColor=none;" parent="1" vertex="1">
          <mxGeometry x="760" y="955" width="110" height="30" as="geometry" />
        </mxCell>
        <mxCell id="ejDtjYFl1J_Eo5fHuyqw-10" value="Server Address" style="text;html=1;strokeColor=none;fillColor=none;align=center;verticalAlign=middle;whiteSpace=wrap;rounded=0;" parent="1" vertex="1">
          <mxGeometry x="580" y="750" width="60" height="30" as="geometry" />
        </mxCell>
        <mxCell id="ejDtjYFl1J_Eo5fHuyqw-13" value="&lt;font style=&quot;font-size: 14px;&quot;&gt;Bug report&lt;br&gt;for singe module&lt;br&gt;&lt;/font&gt;" style="text;html=1;strokeColor=none;fillColor=none;align=center;verticalAlign=middle;whiteSpace=wrap;rounded=0;" parent="1" vertex="1">
          <mxGeometry x="440" y="910" width="60" height="30" as="geometry" />
        </mxCell>
        <mxCell id="ejDtjYFl1J_Eo5fHuyqw-15" style="edgeStyle=orthogonalEdgeStyle;rounded=0;orthogonalLoop=1;jettySize=auto;html=1;" parent="1" source="ejDtjYFl1J_Eo5fHuyqw-16" target="ejDtjYFl1J_Eo5fHuyqw-21" edge="1">
          <mxGeometry relative="1" as="geometry" />
        </mxCell>
        <mxCell id="ejDtjYFl1J_Eo5fHuyqw-16" value="" style="rounded=0;whiteSpace=wrap;html=1;" parent="1" vertex="1">
          <mxGeometry x="360" y="190" width="170" height="90" as="geometry" />
        </mxCell>
        <mxCell id="ejDtjYFl1J_Eo5fHuyqw-17" value="Server Room" style="text;html=1;align=center;verticalAlign=middle;resizable=0;points=[];autosize=1;strokeColor=none;fillColor=none;" parent="1" vertex="1">
          <mxGeometry x="380" y="160" width="90" height="30" as="geometry" />
        </mxCell>
        <mxCell id="ejDtjYFl1J_Eo5fHuyqw-18" style="edgeStyle=orthogonalEdgeStyle;rounded=0;orthogonalLoop=1;jettySize=auto;html=1;" parent="1" source="ejDtjYFl1J_Eo5fHuyqw-19" target="ejDtjYFl1J_Eo5fHuyqw-16" edge="1">
          <mxGeometry relative="1" as="geometry">
            <Array as="points">
              <mxPoint x="145" y="235" />
            </Array>
          </mxGeometry>
        </mxCell>
        <mxCell id="ejDtjYFl1J_Eo5fHuyqw-19" value="Actor" style="shape=umlActor;verticalLabelPosition=bottom;verticalAlign=top;html=1;outlineConnect=0;" parent="1" vertex="1">
          <mxGeometry x="130" y="380" width="30" height="60" as="geometry" />
        </mxCell>
        <mxCell id="ejDtjYFl1J_Eo5fHuyqw-20" style="edgeStyle=orthogonalEdgeStyle;rounded=0;orthogonalLoop=1;jettySize=auto;html=1;" parent="1" source="ejDtjYFl1J_Eo5fHuyqw-21" edge="1">
          <mxGeometry relative="1" as="geometry">
            <mxPoint x="190" y="410" as="targetPoint" />
            <Array as="points">
              <mxPoint x="450" y="410" />
              <mxPoint x="450" y="411" />
            </Array>
          </mxGeometry>
        </mxCell>
        <mxCell id="ejDtjYFl1J_Eo5fHuyqw-21" value="Actor" style="shape=umlActor;verticalLabelPosition=bottom;verticalAlign=top;html=1;outlineConnect=0;" parent="1" vertex="1">
          <mxGeometry x="710" y="380" width="30" height="60" as="geometry" />
        </mxCell>
        <mxCell id="ejDtjYFl1J_Eo5fHuyqw-22" value="&lt;font style=&quot;font-size: 14px;&quot;&gt;Developer&lt;/font&gt;" style="text;html=1;align=center;verticalAlign=middle;resizable=0;points=[];autosize=1;strokeColor=none;fillColor=none;" parent="1" vertex="1">
          <mxGeometry x="50" y="340" width="90" height="30" as="geometry" />
        </mxCell>
        <mxCell id="ejDtjYFl1J_Eo5fHuyqw-23" value="&lt;font style=&quot;font-size: 14px;&quot;&gt;QA engineer&amp;nbsp;&lt;/font&gt;" style="text;html=1;align=center;verticalAlign=middle;resizable=0;points=[];autosize=1;strokeColor=none;fillColor=none;" parent="1" vertex="1">
          <mxGeometry x="740" y="395" width="110" height="30" as="geometry" />
        </mxCell>
        <mxCell id="ejDtjYFl1J_Eo5fHuyqw-24" value="Actor" style="shape=umlActor;verticalLabelPosition=bottom;verticalAlign=top;html=1;outlineConnect=0;" parent="1" vertex="1">
          <mxGeometry x="280" y="130" width="30" height="60" as="geometry" />
        </mxCell>
        <mxCell id="ejDtjYFl1J_Eo5fHuyqw-25" value="Network Engineers" style="text;html=1;strokeColor=none;fillColor=none;align=center;verticalAlign=middle;whiteSpace=wrap;rounded=0;" parent="1" vertex="1">
          <mxGeometry x="265" y="90" width="60" height="30" as="geometry" />
        </mxCell>
        <mxCell id="ejDtjYFl1J_Eo5fHuyqw-26" value="Server Address" style="text;html=1;strokeColor=none;fillColor=none;align=center;verticalAlign=middle;whiteSpace=wrap;rounded=0;" parent="1" vertex="1">
          <mxGeometry x="560" y="190" width="60" height="30" as="geometry" />
        </mxCell>
        <mxCell id="ejDtjYFl1J_Eo5fHuyqw-27" value="&lt;font style=&quot;font-size: 14px;&quot;&gt;Bug report&lt;/font&gt;" style="text;html=1;strokeColor=none;fillColor=none;align=center;verticalAlign=middle;whiteSpace=wrap;rounded=0;" parent="1" vertex="1">
          <mxGeometry x="420" y="370" width="60" height="30" as="geometry" />
        </mxCell>
        <mxCell id="ejDtjYFl1J_Eo5fHuyqw-28" value="5" style="ellipse;shape=cloud;whiteSpace=wrap;html=1;" parent="1" vertex="1">
          <mxGeometry x="400" y="750" width="120" height="80" as="geometry" />
        </mxCell>
        <mxCell id="ejDtjYFl1J_Eo5fHuyqw-31" value="&lt;font style=&quot;font-size: 14px;&quot;&gt;Cloud and devops Engineer&lt;/font&gt;" style="text;html=1;strokeColor=none;fillColor=none;align=center;verticalAlign=middle;whiteSpace=wrap;rounded=0;" parent="1" vertex="1">
          <mxGeometry x="280" y="700" width="60" height="30" as="geometry" />
        </mxCell>
        <mxCell id="ejDtjYFl1J_Eo5fHuyqw-32" value="Actor" style="shape=umlActor;verticalLabelPosition=bottom;verticalAlign=top;html=1;outlineConnect=0;" parent="1" vertex="1">
          <mxGeometry x="280" y="1200" width="30" height="60" as="geometry" />
        </mxCell>
        <mxCell id="ejDtjYFl1J_Eo5fHuyqw-33" value="Actor" style="shape=umlActor;verticalLabelPosition=bottom;verticalAlign=top;html=1;outlineConnect=0;" parent="1" vertex="1">
          <mxGeometry x="120" y="1330" width="30" height="60" as="geometry" />
        </mxCell>
        <mxCell id="ejDtjYFl1J_Eo5fHuyqw-34" value="Actor" style="shape=umlActor;verticalLabelPosition=bottom;verticalAlign=top;html=1;outlineConnect=0;" parent="1" vertex="1">
          <mxGeometry x="420" y="1330" width="30" height="60" as="geometry" />
        </mxCell>
        <mxCell id="ejDtjYFl1J_Eo5fHuyqw-35" value="Actor" style="shape=umlActor;verticalLabelPosition=bottom;verticalAlign=top;html=1;outlineConnect=0;" parent="1" vertex="1">
          <mxGeometry x="890" y="1200" width="30" height="60" as="geometry" />
        </mxCell>
        <mxCell id="ejDtjYFl1J_Eo5fHuyqw-37" value="Automation process" style="rounded=1;whiteSpace=wrap;html=1;" parent="1" vertex="1">
          <mxGeometry x="105" y="760" width="120" height="60" as="geometry" />
        </mxCell>
        <mxCell id="ejDtjYFl1J_Eo5fHuyqw-39" style="edgeStyle=orthogonalEdgeStyle;rounded=0;orthogonalLoop=1;jettySize=auto;html=1;entryX=0.16;entryY=0.55;entryDx=0;entryDy=0;entryPerimeter=0;" parent="1" source="ejDtjYFl1J_Eo5fHuyqw-37" target="ejDtjYFl1J_Eo5fHuyqw-28" edge="1">
          <mxGeometry relative="1" as="geometry" />
        </mxCell>
        <mxCell id="ejDtjYFl1J_Eo5fHuyqw-41" value="" style="ellipse;shape=cloud;whiteSpace=wrap;html=1;" parent="1" vertex="1">
          <mxGeometry x="190" y="1450" width="670" height="470" as="geometry" />
        </mxCell>
        <mxCell id="ejDtjYFl1J_Eo5fHuyqw-42" value="Server" style="rounded=1;whiteSpace=wrap;html=1;" parent="1" vertex="1">
          <mxGeometry x="365" y="1680" width="120" height="60" as="geometry" />
        </mxCell>
        <mxCell id="ejDtjYFl1J_Eo5fHuyqw-43" value="Storage" style="rounded=1;whiteSpace=wrap;html=1;" parent="1" vertex="1">
          <mxGeometry x="570" y="1660" width="120" height="60" as="geometry" />
        </mxCell>
      </root>
    </mxGraphModel>
  </diagram>
</mxfile>
